<svg xmlns="http://www.w3.org/2000/svg" version="1.1" viewBox="0 0 1000 1000" width="1000" height="1000"><path fill="#333333" d="M548.8 398.9C528.18 355.96 470.17 355.75 449.26 398.76Q449.02 399.25 448.47 399.25L437.03 399.25A.39.38 11.1 0 1 436.67 398.72C460.32 340.04 535.94 340.47 561.19 397.81Q561.81 399.21 560.28 399.22L549.44 399.31Q548.99 399.31 548.8 398.9ZM518.67 450.01C510.76 451.03 505.37 450.19 499.99 443.74A.59.58-44.6 0 1 500 442.98Q509.79 431.76 519.72 420.63C528.68 410.58 532.62 404.93 543.77 402.67 549.61 401.5 557.99 401.99 564.81 402A.37.37 0 0 1 565.08 402.61Q520.52 452.88 475.54 503.04C467.8 511.67 455.53 511.54 447.64 503.05Q447.02 502.38 447.62 501.69L484.47 459.69Q484.87 459.23 484.34 458.96 480.35 456.87 479.18 455.57 456.07 429.67 432.82 403.56A.3.3 0 0 1 433.06 403.06C438.24 403.27 443.7 403.01 448.5 403.98 470.88 408.49 482.13 425.81 496.5 441.78 503.39 449.45 508.74 453.62 518.77 450.46Q521.24 449.68 518.67 450.01ZM545.66 411.26A2.52 2.52 0 0 0 543.14 408.74 2.52 2.52 0 0 0 540.62 411.26 2.52 2.52 0 0 0 543.14 413.78 2.52 2.52 0 0 0 545.66 411.26Z" data-c-fill="ffffff"/><path fill="#333333" d="M464 476.78C440.72 462.23 429.57 436.11 433.5 409.18A.24.23 28.5 0 1 433.91 409.06L443.67 420.08Q444.21 420.68 444.26 421.48 446.13 452.18 472.13 468.08A.48.48 0 0 1 472.23 468.82L464.79 476.68Q464.44 477.05 464 476.78ZM554.22 420.43 564.01 409.19A.4.4 0 0 1 564.71 409.4Q568.76 444.7 545.56 467.96C531.67 481.89 513.46 488.57 493.66 487.39A.25.25 0 0 1 493.49 486.98L503.24 475.98Q503.6 475.57 504.14 475.51C532.84 472.32 552.17 449.87 553.83 421.39Q553.86 420.84 554.22 420.43Z" data-c-fill="ffffff"/><rect fill="#333333" x="-40.09" y="-5.73" transform="rotate(-.1 321844.926 -318484.368)" width="80.18" height="11.46" rx="5.61" data-c-fill="ffffff"/><rect fill="#333333" x="392.98" y="584.74" width="102.06" height="11.5" rx="5.45" data-c-fill="ffffff"/><rect fill="#333333" x="506.98" y="621.01" width="98.72" height="11.94" rx="5.57" data-c-fill="ffffff"/></svg>
